<svg id="_15_copy_3" data-name="15 copy 3" xmlns="http://www.w3.org/2000/svg" width="21.353" height="21.55" viewBox="0 0 21.353 21.55">
  <g id="Group_14112" data-name="Group 14112" transform="translate(0 0)">
    <rect id="Rectangle_4197" data-name="Rectangle 4197" width="0.712" height="0.712" transform="translate(14.947 11.941)" fill="#3c41ed"/>
    <rect id="Rectangle_4198" data-name="Rectangle 4198" width="0.712" height="0.712" transform="translate(5.694 11.941)" fill="#3c41ed"/>
    <path id="Path_34385" data-name="Path 34385" d="M36.994,22.076h-.712a.356.356,0,0,0-.318.2l-.258.515h-.848V19.941h2.135a.356.356,0,0,0,.222-.634l-.668-.534c-.115-.092-.224-.174-.319-.246-.493-.372-.659-.5-.659-1.077a.356.356,0,0,0-.356-.356H34.5V15.314H35.57a.356.356,0,0,0,.183-.661l-.915-.549a1.431,1.431,0,0,1-.69-1.174l.651-.977-.592-.395-.606.909H32.367v.712h1.088A2.152,2.152,0,0,0,34.3,14.6H19.043a2.152,2.152,0,0,0,.848-1.423H31.656v-.712H19.746l-.606-.909-.592.395.651.977a1.431,1.431,0,0,1-.69,1.174l-.915.549a.356.356,0,0,0,.183.661h1.068v1.779h-.712a.356.356,0,0,0-.356.356c0,.58-.166.705-.659,1.077-.1.072-.2.154-.319.246l-.668.534a.356.356,0,0,0,.222.634h2.135v2.847h-.848l-.258-.515a.356.356,0,0,0-.318-.2h-.712a.356.356,0,0,0-.356.356v10.32a.356.356,0,0,0,.356.356H36.994a.356.356,0,0,0,.356-.356V22.432A.356.356,0,0,0,36.994,22.076Zm-4.27-6.761h1.068v1.779H32.723Zm-1.423,0h.712v1.779H31.3Zm-1.423,0h.712v1.779h-.712Zm-1.779,0h1.068v1.779H28.1Zm-2.135,0h1.423v1.779H25.962Zm-1.779,0H25.25v1.779H24.182Zm-1.423,0h.712v1.779h-.712Zm-1.423,0h.712v1.779h-.712Zm-1.779,0h1.068v1.779H19.556ZM16.709,32.4V28.837h5.556l-.265.8-.053.159h0l-.868,2.6Zm1.423-4.27V26.381a1.427,1.427,0,0,1,1.144-1.4l.279-.056.279.056a1.427,1.427,0,0,1,1.144,1.4v1.744Zm3.7,4.27.237-.712H31.28l.237.712Zm.949-2.847.237-.712h7.316l.237.712H24.538v.712h6.268l.237.712H22.3l.237-.712h1.286v-.712Zm.337-1.423V26.7a3.213,3.213,0,0,1,2.109-3.01l1.45-.527,1.45.527a3.213,3.213,0,0,1,2.108,3.01v1.422ZM36.638,32.4h-4.37l-.868-2.6h0l-.053-.159-.265-.8h5.556Zm-4.27-4.27V26.381a1.427,1.427,0,0,1,1.144-1.4l.279-.056.279.056a1.427,1.427,0,0,1,1.144,1.4v1.744Zm4.27,0h-.712V26.381a2.141,2.141,0,0,0-1.716-2.094l-.349-.07a.356.356,0,0,0-.14,0l-.349.07a2.141,2.141,0,0,0-1.716,2.094v1.744h-.712V26.7a3.927,3.927,0,0,0-2.577-3.679l-1.572-.572a.356.356,0,0,0-.243,0l-1.572.572A3.927,3.927,0,0,0,22.4,26.7v1.422h-.712V26.381a2.141,2.141,0,0,0-1.716-2.094l-.349-.07a.356.356,0,0,0-.14,0l-.349.07a2.141,2.141,0,0,0-1.716,2.094v1.744h-.712V22.788h.136l.258.515a.356.356,0,0,0,.318.2h2.847a.356.356,0,0,0,.252-.1l.607-.608h.92a.356.356,0,0,0,.214-.071l1.329-1h4.864v-.712H23.47a.356.356,0,0,0-.214.071l-1.329,1h-.949a.356.356,0,0,0-.252.1l-.607.608H19.2V19.941h1.246a.178.178,0,0,1,.178.178v.356a.178.178,0,0,1-.356,0V20.3h-.712v.178a.89.89,0,0,0,1.779,0v-.356a.889.889,0,0,0-.018-.178h.73v-.712H17.37l.177-.134a1.826,1.826,0,0,0,.918-1.289H34.882a1.826,1.826,0,0,0,.918,1.289l.177.134H22.759v.712h9.27a.889.889,0,0,0-.018.178v.356a.89.89,0,0,0,1.779,0V20.3h-.712v.178a.178.178,0,0,1-.356,0v-.356a.178.178,0,0,1,.178-.178h1.246v2.847h-.6l-.978-.652a.356.356,0,0,0-.2-.06h-.949l-1.329-1a.356.356,0,0,0-.214-.071h-.712v.712h.593l1.329,1a.356.356,0,0,0,.214.071h.96l.978.652a.356.356,0,0,0,.2.06h2.491a.356.356,0,0,0,.318-.2l.258-.515h.136Z" transform="translate(-15.997 -11.558)" fill="#3c41ed"/>
  </g>
</svg>
