<svg id="calendar_3_" data-name="calendar (3)" xmlns="http://www.w3.org/2000/svg" width="12.318" height="12.318" viewBox="0 0 12.318 12.318">
  <path id="Path_94" data-name="Path 94" d="M13.5,3.027v.616a.41.41,0,0,1-.411.411h-.411a.41.41,0,0,0,.411-.411V2.411a.411.411,0,0,0-.821,0v.616H11.239v.616a.41.41,0,0,1-.411.411h-.411a.41.41,0,0,0,.411-.411V2.411a.411.411,0,1,0-.821,0v.616H8.98v.616a.41.41,0,0,1-.411.411H8.159a.41.41,0,0,0,.411-.411V2.411a.411.411,0,0,0-.821,0v.616H6.722v.616a.41.41,0,0,1-.411.411H5.9a.41.41,0,0,0,.411-.411V2.411a.411.411,0,1,0-.821,0v.616H4.464v.616a.41.41,0,0,1-.411.411H3.642a.41.41,0,0,0,.411-.411V2.411a.411.411,0,0,0-.821,0v.616H2V5.285H14.318V3.027Z" transform="translate(-2 -2)" fill="#fff"/>
  <path id="Path_95" data-name="Path 95" d="M2,27.8a.821.821,0,0,0,.821.821H13.5a.821.821,0,0,0,.821-.821V20H2Zm9.649-6.98h1.642v1.642H11.649Zm0,2.669h1.642v1.642H11.649Zm0,2.669h1.642V27.8H11.649ZM8.775,20.821h1.642v1.642H8.775Zm0,2.669h1.642v1.642H8.775Zm0,2.669h1.642V27.8H8.775ZM5.9,20.821H7.543v1.642H5.9Zm0,2.669H7.543v1.642H5.9Zm0,2.669H7.543V27.8H5.9ZM3.027,20.821H4.669v1.642H3.027Zm0,2.669H4.669v1.642H3.027Zm0,2.669H4.669V27.8H3.027Z" transform="translate(-2 -16.304)" fill="#fff"/>
</svg>
